<svg width="25" height="24" viewBox="0 0 25 24" fill="none" xmlns="http://www.w3.org/2000/svg">
<path d="M2.92969 14.9538L1.06509 14.5425C0.518604 15.645 0 16.8836 0 18.3104C0 19.71 0.497607 20.9335 1.06509 22.0783L7.37305 20.6868V23.431L9.57031 22.3324L11.7676 23.431V20.6883L18.0263 22.0791C18.5686 20.9851 19.0918 19.7433 19.0918 18.3104C19.0918 18.0634 19.0735 17.8176 19.0428 17.578H25V-0.00012207H2.92969V14.9538ZM1.90088 20.3939C1.71035 19.8901 1.46484 19.0897 1.46484 18.3104C1.46484 17.531 1.7104 16.7305 1.90088 16.2269L7.37305 17.4341V19.1868L1.90088 20.3939ZM10.3027 21.0609L9.57031 20.6947L8.83789 21.0609V17.578H10.3027V21.0609ZM17.1913 20.393L11.7676 19.1877V17.4331L17.1913 16.2278C17.3817 16.7317 17.627 17.5316 17.627 18.3104C17.627 19.0893 17.3817 19.8893 17.1913 20.393ZM23.5352 1.46472V16.1132H18.7038C18.4637 15.3786 18.2701 15.0318 18.0263 14.5417L10.9548 16.1132H8.18535L4.39453 15.2769V1.46472H23.5352Z" fill="white"/>
<path d="M8.83789 2.92957H19.0918V4.39441H8.83789V2.92957Z" fill="white"/>
<path d="M5.85938 8.78894H22.0703V10.2538H5.85938V8.78894Z" fill="white"/>
<path d="M8.83789 11.7186H19.0918V13.1835H8.83789V11.7186Z" fill="white"/>
<path d="M10.3027 5.85925H11.7676V7.3241H10.3027V5.85925Z" fill="white"/>
<path d="M13.2324 5.85925H14.6973V7.3241H13.2324V5.85925Z" fill="white"/>
<path d="M16.1621 5.85925H17.627V7.3241H16.1621V5.85925Z" fill="white"/>
</svg>
