<svg width="20" height="25" viewBox="0 0 20 25" fill="none" xmlns="http://www.w3.org/2000/svg">
<path d="M17.1101 16.3328L15.6429 15.902L12.4507 13.817V13.3393C13.3749 12.6422 14.0096 11.5766 14.1275 10.3552C14.5911 10.2806 14.9462 9.87777 14.9462 9.39359V8.07987C14.9462 8.07479 14.9457 8.06981 14.9454 8.06473V6.40057C15.1301 6.26835 15.2473 6.05297 15.2473 5.81136V4.28842L17.4502 3.91317C17.8123 3.8515 18.0727 3.56395 18.0982 3.1976C18.1237 2.83124 17.9058 2.51034 17.5559 2.39906L10.1293 0.036853C9.97427 -0.0124634 9.8106 -0.0124146 9.65571 0.0368042L2.229 2.39906C1.87905 2.51034 1.66108 2.83124 1.68662 3.19755C1.70283 3.43031 1.81406 3.63099 1.98574 3.76244V5.75399H1.96758C1.54937 5.75399 1.20913 6.09423 1.20913 6.51244V7.50101L0.719531 10.3746C0.634912 10.8717 1.01772 11.3266 1.5231 11.3266H3.18076C3.68501 11.3266 4.06914 10.8727 3.98433 10.3746L3.49473 7.50101V6.51244C3.49473 6.09423 3.15449 5.75399 2.73628 5.75399H2.71816V3.97845L4.53916 4.28861V5.81136C4.53916 6.05194 4.65581 6.26698 4.8396 6.3994L4.84028 8.08002V9.39359C4.84028 9.87782 5.19541 10.2806 5.65894 10.3552C5.77686 11.5759 6.41084 12.641 7.33418 13.3382V13.8182L4.14268 15.9028L2.67661 16.3331C1.10781 16.7935 9.76026e-05 18.2338 9.76026e-05 19.908V20.9995C9.76026e-05 21.2017 0.164014 21.3657 0.366309 21.3657C0.568604 21.3657 0.73252 21.2017 0.73252 20.9995V19.908C0.73252 18.5885 1.61675 17.4074 2.88291 17.0358L4.24893 16.6348L9.70625 19.8777C9.81704 19.9435 9.96362 19.947 10.0804 19.8777L15.538 16.6347L16.9039 17.0356C18.1699 17.4073 19.0541 18.5884 19.0541 19.9078V23.4448C19.0541 23.8985 18.685 24.2676 18.2314 24.2676H16.6172V22.6891C16.6172 22.4868 16.4533 22.3228 16.251 22.3228C16.0488 22.3228 15.8848 22.4868 15.8848 22.6891V24.2676H3.90005V22.6891C3.90005 22.4868 3.73613 22.3228 3.53384 22.3228C3.33154 22.3228 3.16763 22.4868 3.16763 22.6891V24.2676H1.55518C1.10151 24.2676 0.732422 23.8985 0.732422 23.4448V22.7113C0.732422 22.5091 0.568506 22.3451 0.366211 22.3451C0.163916 22.3451 0 22.509 0 22.7113V23.4448C0 24.3023 0.697607 24.9999 1.55513 24.9999H18.2313C19.0888 24.9999 19.7864 24.3023 19.7864 23.4448V19.9078C19.7864 18.273 18.7165 16.8045 17.1101 16.3328ZM3.18071 10.5942H1.5231C1.47188 10.5942 1.43281 10.5484 1.4415 10.4976L1.88438 7.89818H2.81943L3.26231 10.4975C3.27095 10.5483 3.23218 10.5942 3.18071 10.5942ZM2.76231 6.51244V7.16581H1.94146V6.51244C1.94146 6.49803 1.95313 6.48636 1.96753 6.48636H2.73618C2.75064 6.48632 2.76231 6.49803 2.76231 6.51244ZM8.5835 18.2211L8.72925 18.4452L4.99053 16.2236L7.36362 14.6736C7.47124 15.9363 7.88745 17.1514 8.5835 18.2211ZM8.58096 16.6403C9.44292 16.7628 10.343 16.7629 11.2055 16.6403C11.0388 17.0504 10.8334 17.4461 10.5891 17.8218L9.89322 18.8913L9.19736 17.8218C8.95298 17.4461 8.74761 17.0504 8.58096 16.6403ZM11.2029 18.2211C11.899 17.1514 12.3152 15.9363 12.4228 14.6736L14.7959 16.2236L11.0572 18.4452L11.2029 18.2211ZM13.3451 6.53695H14.213V7.71361H13.7822C13.5412 7.71361 13.345 7.51752 13.345 7.27645V6.53695H13.3451ZM2.45098 3.09701L9.87778 0.734705C9.88731 0.731677 9.89756 0.731628 9.90723 0.734753L17.334 3.09701C17.3493 3.10189 17.3704 3.10853 17.3677 3.14667C17.365 3.18475 17.3433 3.18842 17.3273 3.19115L14.8719 3.60936L13.95 3.49535C13.7494 3.4705 13.5665 3.61317 13.5417 3.81386C13.5168 4.01459 13.6595 4.1974 13.8602 4.2222L14.5149 4.30321V5.80458L5.27153 5.80424V4.30316L9.06094 3.83427C9.61289 3.76605 10.1725 3.76605 10.724 3.83427L12.1583 4.01166C12.3589 4.03651 12.5418 3.89388 12.5667 3.6932C12.5915 3.49247 12.4489 3.30966 12.2482 3.2848L10.814 3.10741C10.2028 3.03177 9.58267 3.03177 8.97105 3.10741L4.91372 3.60946L2.45752 3.19115C2.4416 3.18842 2.41987 3.18475 2.41719 3.14667C2.41455 3.10853 2.4356 3.10184 2.45098 3.09701ZM5.57246 7.71361L5.57197 6.53695H6.44136V7.2765C6.44136 7.51752 6.24527 7.71366 6.00415 7.71366H5.57246V7.71361ZM6.37847 10.1669C6.35962 9.86874 6.11177 9.63514 5.81426 9.63514C5.68101 9.63514 5.57261 9.52675 5.57261 9.39354V8.44603H6.00415C6.64902 8.44603 7.17373 7.92137 7.17373 7.2765V6.53695H12.6126V7.2765C12.6126 7.92137 13.1374 8.44603 13.7822 8.44603H14.2138V9.39354C14.2138 9.52675 14.1054 9.63514 13.9721 9.63514C13.6746 9.63514 13.4268 9.86874 13.4079 10.167C13.2913 12.0161 11.7474 13.4645 9.89317 13.4645C8.03892 13.4645 6.49512 12.0161 6.37847 10.1669ZM9.89322 14.1969C10.5445 14.1969 11.1636 14.048 11.7183 13.7832V14.0153C11.7183 14.6414 11.6338 15.259 11.4712 15.8547C10.476 16.0445 9.35083 16.0521 8.31524 15.8547C8.15259 15.2591 8.06812 14.6414 8.06812 14.0153C8.06812 14.0075 8.06704 13.9999 8.06655 13.9923C8.06646 13.9908 8.0666 13.9892 8.0665 13.9877V13.7825C8.62163 14.0477 9.24126 14.1969 9.89322 14.1969Z" fill="white"/>
</svg>
