<svg width="25" height="25" viewBox="0 0 25 25" fill="none" xmlns="http://www.w3.org/2000/svg">
<g clip-path="url(#clip0)">
<path d="M20.2645 19.1456L19.6145 19.5792L21.1449 21.8749H3.85469L5.67773 19.1405H15.6023V18.3593H5.46875C5.40446 18.3592 5.34115 18.3751 5.28446 18.4054C5.22777 18.4358 5.17943 18.4796 5.14375 18.5331L2.8 22.0487C2.75732 22.113 2.7345 22.1884 2.73438 22.2655V23.4374C2.73438 23.6446 2.81668 23.8433 2.9632 23.9898C3.10971 24.1363 3.30842 24.2186 3.51562 24.2186H21.4844C21.6916 24.2186 21.8903 24.1363 22.0368 23.9898C22.1833 23.8433 22.2656 23.6446 22.2656 23.4374V22.2655C22.2655 22.1884 22.2427 22.113 22.2 22.0487L20.2645 19.1456ZM3.51562 23.4374V22.6561H21.4844V23.4374H3.51562Z" fill="white"/>
<path d="M20.3125 0.781128H4.6875C4.37698 0.782055 4.07945 0.905818 3.85988 1.12539C3.64032 1.34496 3.51655 1.64249 3.51562 1.953V12.1093C3.51655 12.4198 3.64032 12.7173 3.85988 12.9369C4.07945 13.1564 4.37698 13.2802 4.6875 13.2811H10.1562V14.8436H8.59375C8.49015 14.8436 8.39079 14.8848 8.31754 14.958C8.24428 15.0313 8.20312 15.1307 8.20312 15.2343V16.7968C8.20312 16.9004 8.24428 16.9997 8.31754 17.073C8.39079 17.1462 8.49015 17.1874 8.59375 17.1874H16.4062C16.5099 17.1874 16.6092 17.1462 16.6825 17.073C16.7557 16.9997 16.7969 16.9004 16.7969 16.7968V15.2343C16.7969 15.1307 16.7557 15.0313 16.6825 14.958C16.6092 14.8848 16.5099 14.8436 16.4062 14.8436H14.8438V13.2811H20.3125C20.623 13.2802 20.9205 13.1564 21.1401 12.9369C21.3597 12.7173 21.4834 12.4198 21.4844 12.1093V1.953C21.4834 1.64249 21.3597 1.34496 21.1401 1.12539C20.9205 0.905818 20.623 0.782055 20.3125 0.781128ZM16.0156 15.6249V16.4061H8.98438V15.6249H16.0156ZM10.9375 14.8436V13.2811H14.0625V14.8436H10.9375ZM20.7031 12.1093C20.7031 12.2129 20.662 12.3122 20.5887 12.3855C20.5155 12.4587 20.4161 12.4999 20.3125 12.4999H4.6875C4.5839 12.4999 4.48454 12.4587 4.41129 12.3855C4.33803 12.3122 4.29688 12.2129 4.29688 12.1093V10.9374H20.7031V12.1093ZM20.7031 10.1561H4.29688V1.953C4.29688 1.8494 4.33803 1.75005 4.41129 1.67679C4.48454 1.60353 4.5839 1.56238 4.6875 1.56238H20.3125C20.4161 1.56238 20.5155 1.60353 20.5887 1.67679C20.662 1.75005 20.7031 1.8494 20.7031 1.953V10.1561Z" fill="white"/>
<path d="M18.3594 11.328H19.1406V12.1093H18.3594V11.328Z" fill="white"/>
<path d="M8.98438 9.37488H10.5469C10.6505 9.37488 10.7498 9.33372 10.8231 9.26047C10.8963 9.18721 10.9375 9.08785 10.9375 8.98425V8.59363H14.0625V8.98425C14.0625 9.08785 14.1037 9.18721 14.1769 9.26047C14.2502 9.33372 14.3495 9.37488 14.4531 9.37488H16.0156C16.1192 9.37488 16.2186 9.33372 16.2918 9.26047C16.3651 9.18721 16.4062 9.08785 16.4062 8.98425V7.42175C16.4062 7.31815 16.3651 7.2188 16.2918 7.14554C16.2186 7.07228 16.1192 7.03113 16.0156 7.03113H15.625V4.68738H16.0156C16.1192 4.68738 16.2186 4.64622 16.2918 4.57297C16.3651 4.49971 16.4062 4.40035 16.4062 4.29675V2.73425C16.4062 2.63065 16.3651 2.5313 16.2918 2.45804C16.2186 2.38478 16.1192 2.34363 16.0156 2.34363H14.4531C14.3495 2.34363 14.2502 2.38478 14.1769 2.45804C14.1037 2.5313 14.0625 2.63065 14.0625 2.73425V3.12488H10.9375V2.73425C10.9375 2.63065 10.8963 2.5313 10.8231 2.45804C10.7498 2.38478 10.6505 2.34363 10.5469 2.34363H8.98438C8.88077 2.34363 8.78142 2.38478 8.70816 2.45804C8.6349 2.5313 8.59375 2.63065 8.59375 2.73425V4.29675C8.59375 4.40035 8.6349 4.49971 8.70816 4.57297C8.78142 4.64622 8.88077 4.68738 8.98438 4.68738H9.375V7.03113H8.98438C8.88077 7.03113 8.78142 7.07228 8.70816 7.14554C8.6349 7.2188 8.59375 7.31815 8.59375 7.42175V8.98425C8.59375 9.08785 8.6349 9.18721 8.70816 9.26047C8.78142 9.33372 8.88077 9.37488 8.98438 9.37488ZM15.625 8.59363H14.8438V7.81238H15.625V8.59363ZM14.8438 3.12488H15.625V3.90613H14.8438V3.12488ZM9.375 3.12488H10.1562V3.90613H9.375V3.12488ZM10.1562 4.68738H10.5469C10.6505 4.68738 10.7498 4.64622 10.8231 4.57297C10.8963 4.49971 10.9375 4.40035 10.9375 4.29675V3.90613H14.0625V4.29675C14.0625 4.40035 14.1037 4.49971 14.1769 4.57297C14.2502 4.64622 14.3495 4.68738 14.4531 4.68738H14.8438V7.03113H14.4531C14.3495 7.03113 14.2502 7.07228 14.1769 7.14554C14.1037 7.2188 14.0625 7.31815 14.0625 7.42175V7.81238H10.9375V7.42175C10.9375 7.31815 10.8963 7.2188 10.8231 7.14554C10.7498 7.07228 10.6505 7.03113 10.5469 7.03113H10.1562V4.68738ZM9.375 7.81238H10.1562V8.59363H9.375V7.81238Z" fill="white"/>
<path d="M8.98438 20.3124H14.4531V21.0936H8.98438V20.3124Z" fill="white"/>
<path d="M23.3867 14.3905L22.2813 13.2851C22.2449 13.2487 22.2016 13.2199 22.154 13.2005C22.1064 13.181 22.0553 13.1713 22.0039 13.1718C21.9531 13.1713 21.9026 13.1811 21.8556 13.2005C21.8086 13.22 21.7661 13.2487 21.7305 13.2851L16.4805 18.5351C16.4377 18.5777 16.4055 18.6299 16.3867 18.6874L16.1094 19.5155C16.0871 19.5842 16.084 19.6576 16.1005 19.7278C16.1171 19.7981 16.1526 19.8625 16.2031 19.914L15.6523 20.4686L16.2031 21.0194L16.7578 20.4686C16.7936 20.5047 16.8363 20.5332 16.8832 20.5527C16.9301 20.5721 16.9804 20.5821 17.0312 20.5819C17.0736 20.5815 17.1157 20.5749 17.1562 20.5624L17.9844 20.2851C18.0418 20.2662 18.094 20.2341 18.1367 20.1913L23.3867 14.9413C23.4595 14.8681 23.5003 14.7691 23.5003 14.6659C23.5003 14.5627 23.4595 14.4637 23.3867 14.3905ZM17.6523 19.5741L17.1406 19.7421L16.9258 19.5311L17.0977 19.0194L20.8984 15.2186L21.4531 15.7694L17.6523 19.5741ZM22.0039 15.2186L21.4531 14.6679L22.0039 14.1132L22.5586 14.6679L22.0039 15.2186Z" fill="white"/>
</g>
<defs>
<clipPath id="clip0">
<rect width="25" height="25" fill="white" transform="translate(0 -0.00012207)"/>
</clipPath>
</defs>
</svg>
