<svg width="23" height="20" viewBox="0 0 23 20" fill="none" xmlns="http://www.w3.org/2000/svg">
<path d="M11.5 0.967468C5.68077 0.967468 0.967453 5.32914 0.967453 10.7085C0.967453 15.0132 3.98503 18.6636 8.16908 19.9507C8.6957 20.0424 8.8888 19.7408 8.8888 19.4823C8.8888 19.251 8.88002 18.638 8.87564 17.826C5.94583 18.4133 5.32792 16.5191 5.32792 16.5191C4.84869 15.3949 4.15618 15.0942 4.15618 15.0942C3.20211 14.4903 4.22991 14.5027 4.22991 14.5027C5.28755 14.5704 5.84314 15.5064 5.84314 15.5064C6.78229 16.9958 8.30863 16.5654 8.91074 16.3168C9.00554 15.6865 9.27675 15.2577 9.57781 15.014C7.2387 14.7703 4.78023 13.9327 4.78023 10.2005C4.78023 9.13735 5.18837 8.26831 5.86421 7.5868C5.74572 7.34063 5.39024 6.35017 5.95637 5.00863C5.95637 5.00863 6.83847 4.74759 8.85282 6.00735C9.69542 5.79092 10.5907 5.68353 11.486 5.67857C12.3812 5.68353 13.2765 5.79092 14.1191 6.00735C16.1203 4.74759 17.0024 5.00863 17.0024 5.00863C17.5685 6.35017 17.213 7.34063 17.1077 7.5868C17.7791 8.26831 18.1873 9.13735 18.1873 10.2005C18.1873 13.9426 15.7253 14.7662 13.3818 15.0058C13.7504 15.2982 14.0928 15.8955 14.0928 16.8083C14.0928 18.1118 14.0796 19.1593 14.0796 19.4757C14.0796 19.7309 14.2639 20.0357 14.8037 19.9383C19.0176 18.6595 22.0325 15.0066 22.0325 10.7085C22.0325 5.32914 17.3166 0.967468 11.5 0.967468Z" fill="#DBE2EF"/>
</svg>
