<svg width="20" height="20" viewBox="0 0 20 20" fill="none" xmlns="http://www.w3.org/2000/svg">
<path d="M0 6.25V13.75C0 17.2013 2.79875 20 6.25 20H13.75C17.2012 20 20 17.2013 20 13.75V6.25C20 2.79875 17.2012 1.90735e-06 13.75 1.90735e-06H6.25C2.79875 1.90735e-06 0 2.79875 0 6.25ZM13.75 1.875C16.1625 1.875 18.125 3.8375 18.125 6.25V13.75C18.125 16.1625 16.1625 18.125 13.75 18.125H6.25C3.8375 18.125 1.875 16.1625 1.875 13.75V6.25C1.875 3.8375 3.8375 1.875 6.25 1.875H13.75Z" fill="#DBE2EF"/>
<path d="M5 10C5 12.7613 7.23875 15 10 15C12.7612 15 15 12.7613 15 10C15 7.23875 12.7612 5 10 5C7.23875 5 5 7.23875 5 10ZM13.125 10C13.125 11.7225 11.7225 13.125 10 13.125C8.27625 13.125 6.875 11.7225 6.875 10C6.875 8.2775 8.27625 6.875 10 6.875C11.7225 6.875 13.125 8.2775 13.125 10Z" fill="#DBE2EF"/>
<path d="M5.29123 4.62477C5.29123 4.25681 4.99295 3.95852 4.62499 3.95852C4.25703 3.95852 3.95874 4.25681 3.95874 4.62477C3.95874 4.99273 4.25703 5.29102 4.62499 5.29102C4.99295 5.29102 5.29123 4.99273 5.29123 4.62477Z" fill="#DBE2EF"/>
</svg>
