<svg width="22" height="21" viewBox="0 0 22 21" fill="none" xmlns="http://www.w3.org/2000/svg">
<g clip-path="url(#clip0)">
<path d="M11 0.467468C5.18323 0.467468 0.467453 4.9446 0.467453 10.4675C0.467453 15.9903 5.18323 20.4675 11 20.4675C16.8168 20.4675 21.5325 15.9903 21.5325 10.4675C21.5325 4.9446 16.8168 0.467468 11 0.467468ZM16.3427 11.549C16.8336 12.0042 17.3529 12.4327 17.7936 12.935C17.9889 13.1572 18.1729 13.387 18.313 13.6454C18.513 14.0139 18.3324 14.418 17.985 14.4398L15.8272 14.4394C15.2699 14.4832 14.8264 14.2698 14.4525 13.9081C14.154 13.6198 13.8771 13.3119 13.5897 13.0138C13.4722 12.8914 13.3485 12.7762 13.2011 12.6856C12.9069 12.5039 12.6514 12.5595 12.4828 12.8513C12.3111 13.1482 12.2719 13.4772 12.2555 13.8076C12.232 14.2907 12.0786 14.4169 11.5681 14.4396C10.4772 14.4881 9.44215 14.331 8.48016 13.8088C7.63152 13.3483 6.97468 12.6983 6.40231 11.9623C5.28775 10.5276 4.43415 8.95299 3.66719 7.33315C3.49458 6.96834 3.62086 6.77315 4.04475 6.76558C4.749 6.75269 5.45325 6.75432 6.1575 6.76496C6.44412 6.76926 6.63376 6.92496 6.74388 7.18174C7.12445 8.07074 7.59101 8.91657 8.17566 9.70102C8.33146 9.90992 8.4905 10.1182 8.71699 10.2657C8.96697 10.4286 9.15747 10.3748 9.27535 10.1098C9.35078 9.94143 9.38332 9.76138 9.39969 9.58092C9.45572 8.96281 9.46241 8.34491 9.36543 7.72926C9.30509 7.34399 9.07688 7.09519 8.67238 7.02235C8.46637 6.98532 8.49654 6.91289 8.59674 6.80118C8.77065 6.60803 8.93357 6.48854 9.25919 6.48854L11.6971 6.48813C12.0814 6.55974 12.1676 6.72343 12.2197 7.0909L12.2219 9.66317C12.2174 9.80537 12.2971 10.2269 12.566 10.3199C12.7815 10.3875 12.9238 10.2234 13.0526 10.0939C13.6373 9.50481 14.0538 8.80957 14.4269 8.08997C14.5915 7.77263 14.7335 7.44425 14.8714 7.11524C14.974 6.87197 15.1335 6.75228 15.4227 6.75637L17.7703 6.75903C17.8395 6.75903 17.9098 6.75964 17.9783 6.7709C18.374 6.83514 18.4824 6.99678 18.36 7.36322C18.1673 7.93898 17.793 8.41857 17.4271 8.89939C17.0348 9.41417 16.6166 9.91095 16.2282 10.428C15.8714 10.9006 15.8996 11.1386 16.3427 11.549Z" fill="black"/>
</g>
<defs>
<clipPath id="clip0">
<rect width="21.0651" height="20" fill="white" transform="translate(0.467453 0.467468)"/>
</clipPath>
</defs>
</svg>
