<svg width="32" height="30" viewBox="0 0 32 30" fill="none" xmlns="http://www.w3.org/2000/svg">
<g clip-path="url(#clip0)">
<path d="M15.8108 0C7.07904 0 -3.04754e-08 6.7157 -6.80689e-08 15C-1.05662e-07 23.2843 7.07904 30 15.8108 30C24.5426 30 31.6216 23.2843 31.6216 15C31.6216 6.7157 24.5426 0 15.8108 0ZM23.8309 16.6223C24.5678 17.3052 25.3474 17.9478 26.009 18.7013C26.3021 19.0346 26.5783 19.3792 26.7886 19.7669C27.0888 20.3196 26.8177 20.9257 26.2963 20.9586L23.0571 20.958C22.2205 21.0236 21.5548 20.7035 20.9935 20.1609C20.5455 19.7285 20.1298 19.2666 19.6982 18.8194C19.5219 18.6359 19.3363 18.4631 19.115 18.3272C18.6734 18.0546 18.2898 18.1381 18.0368 18.5758C17.779 19.0211 17.7201 19.5146 17.6955 20.0102C17.6602 20.7348 17.4299 20.9242 16.6635 20.9583C15.026 21.031 13.4723 20.7953 12.0282 20.0121C10.7543 19.3212 9.76825 18.3462 8.90905 17.2422C7.23593 15.0902 5.95457 12.7283 4.80325 10.2985C4.54413 9.7513 4.7337 9.45852 5.37001 9.44716C6.4272 9.42783 7.48438 9.43028 8.54156 9.44624C8.97181 9.45268 9.25648 9.68624 9.42179 10.0714C9.99308 11.4049 10.6934 12.6737 11.5711 13.8503C11.805 14.1637 12.0437 14.4761 12.3837 14.6974C12.759 14.9417 13.0449 14.861 13.2219 14.4635C13.3351 14.2109 13.384 13.9409 13.4085 13.6702C13.4926 12.743 13.5027 11.8162 13.3571 10.8927C13.2665 10.3148 12.9239 9.94158 12.3167 9.83233C12.0075 9.77678 12.0528 9.66813 12.2032 9.50056C12.4643 9.21084 12.7088 9.03161 13.1976 9.03161L16.8573 9.031C17.4341 9.13841 17.5635 9.38394 17.6418 9.93514L17.645 13.7936C17.6382 14.0069 17.7579 14.6391 18.1616 14.7787C18.4851 14.88 18.6986 14.6339 18.8921 14.4396C19.7697 13.556 20.3951 12.5131 20.955 11.4338C21.2022 10.9577 21.4154 10.4652 21.6224 9.97166C21.7764 9.60675 22.0158 9.42721 22.4499 9.43335L25.974 9.43734C26.0779 9.43734 26.1834 9.43826 26.2862 9.45514C26.8802 9.55151 27.0429 9.79396 26.8591 10.3436C26.5699 11.2073 26.008 11.9266 25.4587 12.6479C24.87 13.4201 24.2421 14.1652 23.6591 14.9408C23.1234 15.6497 23.1658 16.0066 23.8309 16.6223Z" fill="#DBE2EF"/>
</g>
<defs>
<clipPath id="clip0">
<rect width="31.6216" height="30" fill="white"/>
</clipPath>
</defs>
</svg>
