<svg width="25" height="21" viewBox="0 0 25 21" fill="none" xmlns="http://www.w3.org/2000/svg">
<path d="M23.3871 -0.00012207H1.6129C1.18531 0.000438048 0.775384 0.170548 0.473027 0.472905C0.17067 0.775262 0.000560118 1.18518 0 1.61278V15.3225C0.000560118 15.7501 0.17067 16.16 0.473027 16.4623C0.775384 16.7647 1.18531 16.9348 1.6129 16.9354H9.92439L9.38659 18.5483H8.06452C7.95757 18.5483 7.85501 18.5907 7.77939 18.6664C7.70377 18.742 7.66129 18.8445 7.66129 18.9515V19.7579H4.03226C3.92532 19.7579 3.82275 19.8004 3.74713 19.876C3.67151 19.9517 3.62903 20.0542 3.62903 20.1612C3.62903 20.2681 3.67151 20.3707 3.74713 20.4463C3.82275 20.5219 3.92532 20.5644 4.03226 20.5644H21.7742C21.8811 20.5644 21.9837 20.5219 22.0593 20.4463C22.1349 20.3707 22.1774 20.2681 22.1774 20.1612C22.1774 20.0542 22.1349 19.9517 22.0593 19.876C21.9837 19.8004 21.8811 19.7579 21.7742 19.7579H17.3387V18.9515C17.3387 18.8445 17.2962 18.742 17.2206 18.6664C17.145 18.5907 17.0424 18.5483 16.9355 18.5483H15.6134L15.0756 16.9354H23.3871C23.8147 16.9348 24.2246 16.7647 24.527 16.4623C24.8293 16.16 24.9994 15.7501 25 15.3225V1.61278C24.9994 1.18518 24.8293 0.775262 24.527 0.472905C24.2246 0.170548 23.8147 0.000438048 23.3871 -0.00012207ZM16.5323 19.3547V19.7579H8.46774V19.3547H16.5323ZM10.2369 18.5483L10.7747 16.9354H14.2253L14.7631 18.5483H10.2369ZM24.1935 15.3225C24.1933 15.5363 24.1082 15.7412 23.957 15.8924C23.8059 16.0436 23.6009 16.1286 23.3871 16.1289H1.6129C1.3991 16.1286 1.19414 16.0436 1.04297 15.8924C0.891787 15.7412 0.806732 15.5363 0.806452 15.3225V14.516H24.1935V15.3225ZM6.8377 10.0805L6.68649 13.7096H6.21673L6.06552 10.0805H6.8377ZM6.12097 9.27407L6.39012 7.66117H6.5131L6.78226 9.27407H6.12097ZM6.45161 6.85472C6.01462 6.85472 5.64516 6.30079 5.64516 5.64504C5.64516 5.23123 6.06754 4.62992 6.4506 4.20603C6.79587 4.58909 7.25806 5.20149 7.25806 5.64504C7.25806 6.30079 6.88861 6.85472 6.45161 6.85472ZM10.8397 6.04826L10.8871 6.14353V6.45149H9.27419V6.14353L9.32157 6.04826H10.8397ZM9.7248 5.24181L10.0806 4.53062L10.4365 5.24181H9.7248ZM10.8871 7.25794V13.6592C10.8873 13.676 10.8884 13.6928 10.8906 13.7096H9.27067C9.27286 13.6928 9.27404 13.676 9.27419 13.6592V7.25794H10.8871ZM14.5161 5.64504H15.7258V6.45149H15.3226C15.2156 6.45149 15.1131 6.49397 15.0375 6.56959C14.9618 6.64521 14.9194 6.74777 14.9194 6.85472C14.9194 6.96166 14.9618 7.06422 15.0375 7.13984C15.1131 7.21546 15.2156 7.25794 15.3226 7.25794H15.7258V8.06439H14.5161C14.4092 8.06439 14.3066 8.10688 14.231 8.1825C14.1554 8.25812 14.1129 8.36068 14.1129 8.46762C14.1129 8.57456 14.1554 8.67712 14.231 8.75274C14.3066 8.82836 14.4092 8.87085 14.5161 8.87085H15.7258V9.6773H15.3226C15.2156 9.6773 15.1131 9.71978 15.0375 9.7954C14.9618 9.87102 14.9194 9.97358 14.9194 10.0805C14.9194 10.1875 14.9618 10.29 15.0375 10.3656C15.1131 10.4413 15.2156 10.4837 15.3226 10.4837H15.7258V11.2902H14.5161C14.4092 11.2902 14.3066 11.3327 14.231 11.4083C14.1554 11.4839 14.1129 11.5865 14.1129 11.6934C14.1129 11.8004 14.1554 11.9029 14.231 11.9785C14.3066 12.0542 14.4092 12.0967 14.5161 12.0967H15.7258V13.7096H12.9032V4.03214H15.7258V4.83859H14.5161C14.4092 4.83859 14.3066 4.88107 14.231 4.95669C14.1554 5.03231 14.1129 5.13487 14.1129 5.24181C14.1129 5.34876 14.1554 5.45132 14.231 5.52694C14.3066 5.60256 14.4092 5.64504 14.5161 5.64504ZM19.3548 10.4837V13.6592C19.355 13.676 19.3562 13.6928 19.3584 13.7096H17.7384C17.7406 13.6928 17.7418 13.676 17.7419 13.6592V10.4837H19.3548ZM17.7419 9.6773V9.36933L18.5484 7.75643L19.3548 9.36933V9.6773H17.7419ZM24.1935 13.7096H20.1578C20.16 13.6928 20.1611 13.676 20.1613 13.6592V9.27407C20.1612 9.21147 20.1467 9.14972 20.119 9.09363L18.9093 6.67427C18.8757 6.60731 18.8242 6.55101 18.7604 6.51166C18.6967 6.47231 18.6233 6.45147 18.5484 6.45147C18.4735 6.45147 18.4001 6.47231 18.3363 6.51166C18.2726 6.55101 18.2211 6.60731 18.1875 6.67427L16.9778 9.09363C16.95 9.14972 16.9355 9.21147 16.9355 9.27407V13.6592C16.9356 13.676 16.9368 13.6928 16.939 13.7096H16.5323V3.62891C16.5323 3.52197 16.4898 3.41941 16.4142 3.34379C16.3385 3.26817 16.236 3.22568 16.129 3.22568H12.5C12.3931 3.22568 12.2905 3.26817 12.2149 3.34379C12.1393 3.41941 12.0968 3.52197 12.0968 3.62891V13.7096H11.69C11.6922 13.6928 11.6934 13.676 11.6935 13.6592V6.04826C11.6935 5.98566 11.679 5.92392 11.6512 5.86782L10.4415 3.44847C10.408 3.3815 10.3564 3.3252 10.2927 3.28585C10.229 3.24651 10.1555 3.22567 10.0806 3.22567C10.0057 3.22567 9.93232 3.24651 9.86858 3.28585C9.80485 3.3252 9.75332 3.3815 9.71976 3.44847L8.51008 5.86782C8.48229 5.92392 8.4678 5.98566 8.46774 6.04826V13.6592C8.4679 13.676 8.46908 13.6928 8.47127 13.7096H7.49345L7.66079 9.69393C7.66129 9.68486 7.66079 9.67579 7.66079 9.66621V9.65411C7.65985 9.63992 7.65817 9.62579 7.65575 9.61177V9.61076L7.28276 7.37236C7.75101 7.01903 8.06452 6.37689 8.06452 5.64504C8.06452 4.60875 6.86341 3.46107 6.72631 3.33355C6.6516 3.26429 6.55348 3.22582 6.45161 3.22582C6.34974 3.22582 6.25163 3.26429 6.17692 3.33355C6.03982 3.46107 4.83871 4.60875 4.83871 5.64504C4.83871 6.37689 5.15222 7.01903 5.62046 7.37236L5.24748 9.61076V9.61177C5.24506 9.62579 5.24337 9.63992 5.24244 9.65411V9.66621C5.24244 9.67579 5.24194 9.68486 5.24244 9.69393L5.40978 13.7096H0.806452V1.61278C0.806732 1.39898 0.891787 1.19402 1.04297 1.04284C1.19414 0.891665 1.3991 0.80661 1.6129 0.80633H23.3871C23.6009 0.80661 23.8059 0.891665 23.957 1.04284C24.1082 1.19402 24.1933 1.39898 24.1935 1.61278V13.7096Z" fill="#DBE2EF"/>
<path d="M4.4355 14.9192H2.01614C1.9092 14.9192 1.80664 14.9617 1.73102 15.0373C1.6554 15.1129 1.61292 15.2155 1.61292 15.3224C1.61292 15.4294 1.6554 15.5319 1.73102 15.6075C1.80664 15.6832 1.9092 15.7256 2.01614 15.7256H4.4355C4.54244 15.7256 4.645 15.6832 4.72062 15.6075C4.79624 15.5319 4.83872 15.4294 4.83872 15.3224C4.83872 15.2155 4.79624 15.1129 4.72062 15.0373C4.645 14.9617 4.54244 14.9192 4.4355 14.9192Z" fill="#DBE2EF"/>
<path d="M6.04839 14.9192H5.64517C5.53823 14.9192 5.43567 14.9617 5.36005 15.0373C5.28443 15.1129 5.24194 15.2155 5.24194 15.3224C5.24194 15.4294 5.28443 15.5319 5.36005 15.6075C5.43567 15.6832 5.53823 15.7256 5.64517 15.7256H6.04839C6.15534 15.7256 6.2579 15.6832 6.33352 15.6075C6.40914 15.5319 6.45162 15.4294 6.45162 15.3224C6.45162 15.2155 6.40914 15.1129 6.33352 15.0373C6.2579 14.9617 6.15534 14.9192 6.04839 14.9192Z" fill="#DBE2EF"/>
<path d="M10.0807 7.66113C9.97371 7.66113 9.87115 7.70362 9.79553 7.77923C9.71991 7.85485 9.67743 7.95742 9.67743 8.06436V12.4998C9.67743 12.6068 9.71991 12.7093 9.79553 12.785C9.87115 12.8606 9.97371 12.9031 10.0807 12.9031C10.1876 12.9031 10.2902 12.8606 10.3658 12.785C10.4414 12.7093 10.4839 12.6068 10.4839 12.4998V8.06436C10.4839 7.95742 10.4414 7.85485 10.3658 7.77923C10.2902 7.70362 10.1876 7.66113 10.0807 7.66113Z" fill="#DBE2EF"/>
<path d="M18.5484 10.887C18.4414 10.887 18.3389 10.9294 18.2632 11.0051C18.1876 11.0807 18.1451 11.1832 18.1451 11.2902V12.4999C18.1451 12.6068 18.1876 12.7094 18.2632 12.785C18.3389 12.8606 18.4414 12.9031 18.5484 12.9031C18.6553 12.9031 18.7579 12.8606 18.8335 12.785C18.9091 12.7094 18.9516 12.6068 18.9516 12.4999V11.2902C18.9516 11.1832 18.9091 11.0807 18.8335 11.0051C18.7579 10.9294 18.6553 10.887 18.5484 10.887Z" fill="#DBE2EF"/>
<path d="M2.01614 2.41924H5.24195C5.34889 2.41924 5.45145 2.37676 5.52707 2.30114C5.60269 2.22552 5.64517 2.12296 5.64517 2.01602C5.64517 1.90908 5.60269 1.80651 5.52707 1.7309C5.45145 1.65528 5.34889 1.61279 5.24195 1.61279H2.01614C1.9092 1.61279 1.80664 1.65528 1.73102 1.7309C1.6554 1.80651 1.61292 1.90908 1.61292 2.01602C1.61292 2.12296 1.6554 2.22552 1.73102 2.30114C1.80664 2.37676 1.9092 2.41924 2.01614 2.41924Z" fill="#DBE2EF"/>
<path d="M2.01614 3.62896H2.82259C2.92953 3.62896 3.0321 3.58648 3.10772 3.51086C3.18334 3.43524 3.22582 3.33268 3.22582 3.22574C3.22582 3.11879 3.18334 3.01623 3.10772 2.94061C3.0321 2.86499 2.92953 2.82251 2.82259 2.82251H2.01614C1.9092 2.82251 1.80664 2.86499 1.73102 2.94061C1.6554 3.01623 1.61292 3.11879 1.61292 3.22574C1.61292 3.33268 1.6554 3.43524 1.73102 3.51086C1.80664 3.58648 1.9092 3.62896 2.01614 3.62896Z" fill="#DBE2EF"/>
<path d="M21.3709 12.9031H22.9838C23.0908 12.9031 23.1933 12.8606 23.269 12.785C23.3446 12.7094 23.3871 12.6068 23.3871 12.4999C23.3871 12.393 23.3446 12.2904 23.269 12.2148C23.1933 12.1392 23.0908 12.0967 22.9838 12.0967H21.3709C21.264 12.0967 21.1614 12.1392 21.0858 12.2148C21.0102 12.2904 20.9677 12.393 20.9677 12.4999C20.9677 12.6068 21.0102 12.7094 21.0858 12.785C21.1614 12.8606 21.264 12.9031 21.3709 12.9031Z" fill="#DBE2EF"/>
<path d="M22.5807 11.6934H22.9839C23.0908 11.6934 23.1934 11.6509 23.269 11.5753C23.3446 11.4997 23.3871 11.3971 23.3871 11.2902C23.3871 11.1832 23.3446 11.0807 23.269 11.0051C23.1934 10.9294 23.0908 10.887 22.9839 10.887H22.5807C22.4737 10.887 22.3712 10.9294 22.2955 11.0051C22.2199 11.0807 22.1774 11.1832 22.1774 11.2902C22.1774 11.3971 22.2199 11.4997 22.2955 11.5753C22.3712 11.6509 22.4737 11.6934 22.5807 11.6934Z" fill="#DBE2EF"/>
</svg>
