<svg width="25" height="25" viewBox="0 0 25 25" fill="none" xmlns="http://www.w3.org/2000/svg">
<g clip-path="url(#clip0)">
<path d="M22.5 3.74988H11.25V4.58321H22.5V3.74988Z" fill="white"/>
<path d="M18.3333 5.4165H11.25V6.24984H18.3333V5.4165Z" fill="white"/>
<path d="M18.3333 7.08325H11.25V7.91659H18.3333V7.08325Z" fill="white"/>
<path d="M22.5 2.08325H14.5833V2.91659H22.5V2.08325Z" fill="white"/>
<path d="M13.75 2.08325H12.9167V2.91659H13.75V2.08325Z" fill="white"/>
<path d="M12.9166 16.6665H12.0833V17.4998H12.9166V16.6665Z" fill="white"/>
<path d="M6.96124 2.79449L6.37207 2.20532L5.53874 3.03866C5.37608 3.20136 5.37608 3.46511 5.53874 3.62782L6.37207 4.46115L6.96124 3.87199L6.42249 3.33324L6.96124 2.79449Z" fill="white"/>
<path d="M10.2946 3.03866L9.46124 2.20532L8.87207 2.79449L9.41082 3.33324L8.87207 3.87199L9.46124 4.46115L10.2946 3.62782C10.4572 3.46511 10.4572 3.20136 10.2946 3.03866Z" fill="white"/>
<path d="M7.93836 1.95097L7.10425 4.45093L7.89435 4.71455L8.72846 2.21459L7.93836 1.95097Z" fill="white"/>
<path d="M21.6667 12.9165V9.58321H20.8334V12.9165H20V8.74988H19.1667V12.9165H18.3334V10.8332H17.5V12.9165H16.6667V10.4165H15.8334V12.9165H15V11.2499H14.1667V12.9165H13.3334V13.7499H22.5V12.9165H21.6667Z" fill="white"/>
<path d="M22.0834 -0.00012207H2.91669C1.53653 0.0012321 0.418041 1.11972 0.416687 2.49988V10.6774V10.6811V15.4165V16.6665C0.418041 18.0467 1.53653 19.1652 2.91669 19.1665H8.07585L6.40919 22.4999H4.16669C3.47632 22.4999 2.91669 23.0595 2.91669 23.7499C2.91669 24.4402 3.47632 24.9999 4.16669 24.9999H20.8334C21.5237 24.9999 22.0834 24.4402 22.0834 23.7499C22.0834 23.0595 21.5237 22.4999 20.8334 22.4999H18.5909L16.9242 19.1665H22.0834C23.4635 19.1652 24.582 18.0467 24.5834 16.6665V2.49988C24.582 1.11972 23.4635 0.0012321 22.0834 -0.00012207ZM1.25002 5.86238L2.1971 6.98988C2.27627 7.0842 2.39315 7.13863 2.51627 7.13863H3.79169C3.91481 7.13863 4.03169 7.0842 4.11085 6.98988L5.05835 5.86238L5.99335 6.16613L6.09669 7.63404C6.10523 7.7568 6.16762 7.86951 6.2671 7.94196L7.29919 8.69196C7.39903 8.76404 7.52549 8.78858 7.64502 8.75904L9.07544 8.40363L9.65377 9.19904L8.87419 10.449C8.8096 10.5538 8.79466 10.6818 8.83335 10.7986L9.22794 12.0115C9.26591 12.1285 9.35356 12.2228 9.46752 12.269L10.8334 12.8228V13.8061L9.46669 14.3599C9.35247 14.4059 9.26466 14.5005 9.2271 14.6178L9.1021 14.9999H6.70169C7.63544 13.0449 6.80752 10.7031 4.85252 9.7693C3.70424 9.22087 2.36122 9.26347 1.25002 9.88363V5.86238ZM1.25002 10.8749C2.59773 9.82347 4.54262 10.0637 5.59398 11.4114C6.40575 12.452 6.46841 13.8928 5.75002 14.9999H1.25002V10.8749ZM20.8334 23.3332C21.0635 23.3332 21.25 23.5198 21.25 23.7499C21.25 23.98 21.0635 24.1665 20.8334 24.1665H4.16669C3.93658 24.1665 3.75002 23.98 3.75002 23.7499C3.75002 23.5198 3.93658 23.3332 4.16669 23.3332H20.8334ZM17.6592 22.4999H7.34085L9.00752 19.1665H15.9925L17.6592 22.4999ZM23.75 16.6665C23.75 17.587 23.0038 18.3332 22.0834 18.3332H2.91669C1.99622 18.3332 1.25002 17.587 1.25002 16.6665V15.8332H5.96752H5.97127H23.75V16.6665ZM23.75 14.9999H10.1063L11.4067 14.4728C11.5638 14.409 11.6666 14.2565 11.6667 14.087V12.5415C11.6667 12.3719 11.5639 12.2191 11.4067 12.1553L9.95835 11.5695L9.68419 10.7257L10.51 9.40071C10.5996 9.25675 10.593 9.0729 10.4934 8.93571L9.58502 7.68571C9.48528 7.54837 9.31226 7.48524 9.14752 7.52613L7.63252 7.90113L6.91669 7.38113L6.8071 5.82696C6.79518 5.65753 6.68158 5.51227 6.52002 5.45988L5.05127 4.98238C4.88966 4.93092 4.71299 4.9817 4.60335 5.11113L3.60044 6.30488H2.71169L1.70835 5.11113C1.59867 4.98154 1.42174 4.93071 1.26002 4.98238L1.25002 4.98613V2.49988C1.25002 1.57941 1.99622 0.833211 2.91669 0.833211H22.0834C23.0038 0.833211 23.75 1.57941 23.75 2.49988V14.9999Z" fill="white"/>
</g>
<defs>
<clipPath id="clip0">
<rect width="25" height="25" fill="white" transform="translate(0 -0.00012207)"/>
</clipPath>
</defs>
</svg>
